<svg id="lin-times-circles" xmlns="http://www.w3.org/2000/svg" xmlns:xlink="http://www.w3.org/1999/xlink" viewBox="0 0 32 32">
    <path fill="#DE363B" d="M16,1c8.3,0,15,6.7,15,15s-6.7,15-15,15S1,24.3,1,16S7.7,1,16,1 M16,0C7.2,0,0,7.2,0,16s7.2,16,16,16s16-7.2,16-16 S24.8,0,16,0L16,0z"/>
    <path fill="#DE363B" d="M16,28.7C9,28.7,3.3,23,3.3,16c0-4,1.8-7.7,5.1-10.1C8.6,5.7,8.9,5.7,9.1,6C9.2,6.2,9.2,6.5,9,6.7C6,8.9,4.3,12.3,4.3,16 c0,6.4,5.2,11.7,11.7,11.7S27.7,22.4,27.7,16S22.4,4.3,16,4.3c-0.3,0-0.5-0.2-0.5-0.5s0.2-0.5,0.5-0.5C23,3.3,28.7,9,28.7,16 C28.7,23,23,28.7,16,28.7z"/>
    <path fill="#DE363B" d="M16.8,16.3l5.2-5.2c0.2-0.2,0.2-0.5,0-0.7s-0.5-0.2-0.7,0l-5.2,5.2L11,10.4c-0.2-0.2-0.5-0.2-0.7,0s-0.2,0.5,0,0.7l5.2,5.2 l-5.2,5.2c-0.2,0.2-0.2,0.5,0,0.7c0.1,0.1,0.2,0.1,0.4,0.1s0.3,0,0.4-0.1l5.2-5.2l5.2,5.2c0.1,0.1,0.2,0.1,0.4,0.1s0.3,0,0.4-0.1 c0.2-0.2,0.2-0.5,0-0.7L16.8,16.3z"/>
</svg>