<svg role="img" aria-label="person" id="lin-person-circle" xmlns="http://www.w3.org/2000/svg" xmlns:xlink="http://www.w3.org/1999/xlink" viewBox="0 0 32 32">
      <path fill="#298269" d="M22.5,23.5c-.5-.2-1.1-.4-1.6-.6-.7-.3-.8-.4-.8-.5V19.7a13.379,13.379,0,0,0,2.6-8.2c0-3.3-3-5.9-6.7-5.9S9.3,8.2,9.3,11.5a13.511,13.511,0,0,0,2.6,8.1v2.9s-.1.2-.8.5c-.5.2-1,.4-1.6.6-1.2.4-1.8.6-2.1,1a.785.785,0,0,0,0,1.1c.2.1.3.2.5.2a1.421,1.421,0,0,0,.6-.2c.2-.1,1-.4,1.5-.6s1.1-.4,1.6-.6c1.6-.6,1.8-1.2,1.8-2.3V21.1c.1.1.2.1.3.2a.806.806,0,1,0,.8-1.4c-2.1-1.2-3.7-4.8-3.7-8.4,0-2.4,2.3-4.3,5.2-4.3,2.8,0,5.1,1.9,5.2,4.3a5.366,5.366,0,0,1-2.1-1.7c-.2-.2-.4-.4-.7-.3a.822.822,0,0,0-.6.4c0,.1-.3.4-1.3,1.2-.9.8-2.8.7-3.5.7-.4-.1-.8.3-.9.7s.3.8.7.9h.9a6.366,6.366,0,0,0,3.8-1.1,5.928,5.928,0,0,0,.8-.8A5.71,5.71,0,0,0,21,13.2c-.4,3.1-1.7,5.8-3.6,6.9a.8.8,0,0,0-.3,1.1.842.842,0,0,0,.7.4.6.6,0,0,0,.4-.1c.1,0,.1-.1.2-.1v1c0,1,.3,1.6,1.8,2.3.5.2,1.1.4,1.6.6a15.067,15.067,0,0,1,1.5.6.864.864,0,0,0,.6.3.764.764,0,0,0,.5-.2.785.785,0,0,0,0-1.1C24.3,24.2,23.7,23.9,22.5,23.5Z"/><path fill="#298269" d="M16,0A16,16,0,1,0,32,16,16.047,16.047,0,0,0,16,0Zm0,30.4A14.4,14.4,0,1,1,30.4,16,14.34,14.34,0,0,1,16,30.4Z"/>
</svg>