<svg role="img" aria-label="home" id="lin-home" xmlns="http://www.w3.org/2000/svg" xmlns:xlink="http://www.w3.org/1999/xlink" width="29" height="32" viewBox="0 0 28.938 32.025">
    <g transform="translate(14.469 16.013)"><path d="M28.6,10.625,15.2.225a1.36,1.36,0,0,0-1.5,0L.5,10.625a1.231,1.231,0,0,0-.5,1v16.3a4.185,4.185,0,0,0,4.1,4.1H24.8a4.118,4.118,0,0,0,4.1-4.1v-16.3A.905.905,0,0,0,28.6,10.625Zm-10.8,19H11.3v-12.4h6.5Zm8.9-1.7a1.793,1.793,0,0,1-1.8,1.8H20.2v-13.7a1.155,1.155,0,0,0-1.2-1.2H10.1a1.155,1.155,0,0,0-1.2,1.2v13.6H4.1a1.793,1.793,0,0,1-1.8-1.8v-15.7l12.1-9.4,12.1,9.4v15.8Z" transform="translate(-14.469 -16.013)" /></g>
</svg>