<svg id="lin-fido" xmlns="http://www.w3.org/2000/svg" xmlns:xlink="http://www.w3.org/1999/xlink" viewBox="0 0 16 32">
    <path fill="#4F52A3" d="M13.5,8H2.5c-1.1,0-2,0.9-2,2v20c0,1.1,0.9,2,2,2h11.1c1.1,0,2-0.9,2-2V10C15.5,8.9,14.6,8,13.5,8z M13.5,30H2.5V10h11.1 V30z"/>
    <path fill="#4F52A3" d="M12.8,6h-2V2H5.2v4h-2V2c0-1.1,0.9-2,2-2h5.5c1.1,0,2,0.9,2,2V6z"/>
    <path fill="#4F52A3" d="M8,18.1c1,0,1.9,0.8,1.9,1.9S9,21.9,8,21.9S6.1,21,6.1,20S7,18.1,8,18.1 M8,16.1c-2.1,0-3.9,1.7-3.9,3.9s1.7,3.9,3.9,3.9 s3.9-1.7,3.9-3.9S10.1,16.1,8,16.1L8,16.1z"/>
    <circle fill="#4F52A3" cx="8" cy="27.5" r="1.3"/>
</svg>