<svg id="lin-woman-circle" xmlns="http://www.w3.org/2000/svg" xmlns:xlink="http://www.w3.org/1999/xlink" viewBox="0 0 32 32">
    <path fill="#DE363B" d="M9.1,12.9C8.9,11,9.3,9.6,10.3,8.5c1.8-2.2,5.3-2.3,5.9-2.3c0.6,0,4,0.2,5.8,2.2c1,1,1.3,2.5,1.1,4.3 c-0.1,0.3-0.5,2.5-1.2,4.7c-0.2,0.4,0.1,0.9,0.5,1c0.1,0,0.2,0,0.3,0c0.3,0,0.6-0.3,0.8-0.5c0.7-2.3,1.3-5,1.3-5 c0.3-2.3-0.2-4.3-1.5-5.6c-2.3-2.3-6-2.5-7-2.5h-0.1c-0.1,0-0.1,0-0.2,0c-1,0-4.7,0.3-6.9,2.7C7.8,8.8,7.3,10.7,7.6,13 c0.1,0.3,0.6,2.7,1.3,5c0.1,0.3,0.4,0.5,0.7,0.5c0.1,0,0.2,0,0.3,0c0.4-0.1,0.6-0.6,0.5-1C9.6,15.4,9.2,13,9.1,12.9z"></path>
    <path fill="#DE363B" d="M21.5,13.3c0.3-0.1,0.5-0.3,0.5-0.6c0-0.3-0.3-0.7-0.6-0.7c-1.7-0.1-2.9-1.6-3.3-2.1c0.2-0.5,0.3-1,0.3-1 c0-0.3-0.2-0.7-0.6-0.8c-0.3-0.1-0.7,0.2-0.8,0.5c0,0.2-0.7,3.7-6,3.3c-0.3,0-0.7,0.3-0.7,0.6c0,0.3,0.3,0.7,0.6,0.7 c0,3.3,2.3,7,5.3,7C19.2,20.3,21.5,16.6,21.5,13.3z M16.2,18.9c-1.8,0-3.6-2.7-3.7-5.4c2.5-0.2,4-1.2,4.8-2.3 c0.5,0.6,1.5,1.5,2.7,1.9c0,0.1,0,0.2,0,0.3C19.9,16.2,18.1,18.9,16.2,18.9z"></path>
    <path fill="#DE363B" d="M16,0C7.2,0,0,7.2,0,16s7.2,16,16,16s16-7.2,16-16S24.8,0,16,0z M16,30.3c-4,0-7.6-1.6-10.2-4.3c0-2.7,3.4-3.6,3.5-3.6 l0.9-0.3c0,0-0.7,2.2-1.1,3.4c-0.3,1,0.5,1.3,1.1,1c1-0.6,4.5-2.5,4.5-2.5c0.3-0.3,0.5-0.7,0.3-1c-0.3-0.3-0.7-0.5-1-0.3l-2.6,1.5 l1-3c0.2-0.4-0.1-1.3-1-1c0,0-1.7,0.6-2.3,0.8c-0.5,0.2-3.5,1-4.4,3.6c-1.8-2.4-2.8-5.3-2.8-8.5C1.7,8.1,8.1,1.7,16,1.7 S30.3,8.1,30.3,16c0,3.2-1.1,6.1-2.8,8.5c-1.2-3.3-6.5-4.3-6.5-4.3c-0.2,0-0.3,0-0.4,0c-0.4,0.2-0.6,0.6-0.5,1l1,3l-2.6-1.5 c-0.3-0.3-0.9-0.1-1,0.3c-0.3,0.3-0.1,0.9,0.3,1c0,0,2.8,1.7,4.2,2.5c0.7,0.4,1.4-0.1,1.1-1c-0.5-1.5-1.1-3.4-1.1-3.4 s4.3,1.1,4.3,3.9C23.6,28.7,20,30.3,16,30.3z M11.1,20.2C11.1,20.2,11.1,20.2,11.1,20.2C11.1,20.2,11.1,20.2,11.1,20.2 C10.8,20.3,10.9,20.3,11.1,20.2z"></path>
</svg>