<svg role="img" aria-label="camera" id="lin-camera" xmlns="http://www.w3.org/2000/svg" xmlns:xlink="http://www.w3.org/1999/xlink" viewBox="0 0 73.667 81.852">
    <path fill="#002169" class="icon-main" d="M39.833,2A36.8,36.8,0,0,0,21.47,70.714l-8.459,5.64a4.093,4.093,0,0,0,2.267,7.5H64.389a4.093,4.093,0,0,0,2.271-7.5L58.2,70.714A36.8,36.8,0,0,0,39.833,2Zm0,65.481A28.648,28.648,0,1,1,68.481,38.833,28.685,28.685,0,0,1,39.833,67.481Z" transform="translate(-3 -2)" /><path fill="#002169" class="icon-badge" d="M27.463,6A20.463,20.463,0,1,0,47.926,26.463,20.486,20.486,0,0,0,27.463,6ZM21.324,26.463a6.141,6.141,0,1,1,6.143-6.139A6.141,6.141,0,0,1,21.324,26.463Z" transform="translate(9.37 10.37)" />
</svg>  