<svg role="img" aria-label="user with password" id="lin-user-password" xmlns="http://www.w3.org/2000/svg" xmlns:xlink="http://www.w3.org/1999/xlink" viewBox="0 0 30 32">
    <path fill="white" d="M22.1,21.8l-4.9-3.2l1.8-3.4c0.4-0.8,0.7-1.7,0.7-2.6V7.5c0-4.1-3.3-7.5-7.5-7.5S4.8,3.3,4.8,7.5v5.3c0,0.9,0.2,1.8,0.7,2.6 l1.8,3.4l-4.9,3.2c-1.5,1-2.4,2.7-2.4,4.5V32l6,0v-2.1l-3.9,0v-3.6c0-1.1,0.5-2.1,1.5-2.7l6.5-4.2l-2.8-5.1c-0.3-0.5-0.4-1-0.4-1.5 V7.5c0-2.9,2.4-5.3,5.3-5.3s5.3,2.4,5.3,5.3v5.3c0,0.5-0.1,1.1-0.4,1.5l-2.8,5.1l3.7,2.4"/><path fill="white" d="M27.9,25.7v4.2H11.8v-4.2H27.9 M28,23.5H11.6c-1.1,0-2,0.9-2,2V30c0,1.1,0.9,2,2,2H28c1.1,0,2-0.9,2-2v-4.5 C30,24.4,29.1,23.5,28,23.5L28,23.5z"/><polygon fill="white" points="15,26 15.6,27.1 16.7,27.3 15.9,28.1 16.1,29.3 15,28.7 14,29.3 14.2,28.1 13.4,27.3 14.5,27.1 	"/><polygon fill="white" points="19.8,26 20.3,27.1 21.5,27.3 20.7,28.1 20.9,29.3 19.8,28.7 18.8,29.3 19,28.1 18.1,27.3 19.3,27.1 	"/><polygon fill="white" points="24.6,26 25.1,27.1 26.3,27.3 25.4,28.1 25.6,29.3 24.6,28.7 23.5,29.3 23.7,28.1 22.9,27.3 24.1,27.1 	"/>
</svg>