<svg id="lin-lock-key-hole" xmlns="http://www.w3.org/2000/svg" xmlns:xlink="http://www.w3.org/1999/xlink" viewBox="0 0 26 32">
    <path fill="white" d="M13,0C8.6,0,5,3.6,5,8v3.2H3.4c-1.8,0-3.2,1.4-3.2,3.2v14.4c0,1.8,1.4,3.2,3.2,3.2h19.2c1.8,0,3.2-1.4,3.2-3.2V14.4 c0-1.8-1.4-3.2-3.2-3.2H21V8C21,3.6,17.4,0,13,0z M8.2,8c0-2.6,2.2-4.8,4.8-4.8s4.8,2.2,4.8,4.8v3.2H8.2V8z M22.6,28.8h-8v-3.6 c1-0.6,1.6-1.6,1.6-2.8c0-1.8-1.4-3.2-3.2-3.2s-3.2,1.4-3.2,3.2c0,1.2,0.6,2.2,1.6,2.8v3.6h-8V14.4h19.2 C22.6,14.4,22.6,28.8,22.6,28.8z"/>
</svg>