<svg id="lin-student-password" xmlns="http://www.w3.org/2000/svg" xmlns:xlink="http://www.w3.org/1999/xlink" viewBox="0 0 32 32">
    <g id="student-outline"><path fill="currentColor" id="student" d="M21.7,16.6c1.1-0.7,2-1.9,2-3.3c0-1.5-0.6-2.4-1.6-2.9c-0.3-2.1-1.9-3.9-4-4.5c0,0-0.2-0.1-0.2-0.2 c-0.1-0.2,0.1-0.5,0.5-1c0.2-0.2,0.2-0.5,0.1-0.8c-0.2-0.2-0.4-0.3-0.7-0.3c-4.4,0.5-7.3,3-7.7,6.8c-1,0.3-1.6,1.5-1.6,2.9 c0,1.4,0.7,2.6,1.9,3.3c0.6,1,1.4,1.9,2.4,2.5v0.7c-0.9,0.2-3,1.4-3.7,2.9h1.6c1.2-1.6,2.9-1.7,2.9-1.7c0.3-0.1,0.6-0.3,0.6-0.7 v-1.6c0-0.2-0.2-0.5-0.3-0.6c-1.1-0.7-1.9-1.5-2.4-2.4c-0.1-0.2-0.2-0.2-0.3-0.3c-0.8-0.4-1.3-1.2-1.3-2.1c0-0.7,0.3-1.5,0.9-1.6 c0.3,0,0.7-0.3,0.7-0.7c0.2-2.9,2-5,5.1-5.7c-0.1,0.3-0.1,0.6,0,0.9c0.2,0.7,0.7,1,1.1,1.1c1.7,0.5,2.9,2,3,3.7 c0,0.3,0.2,0.7,0.6,0.7c0.7,0.1,1,0.7,1,1.6s-0.5,1.8-1.3,2.1c-0.2,0.1-0.2,0.2-0.3,0.3c-0.5,0.9-1.2,1.7-2.2,2.3 c-0.2,0.2-0.3,0.3-0.3,0.6v1.6c0,0.3,0.2,0.7,0.6,0.7c0,0,2,0.2,2.9,1.8h1.4c-0.6-1.5-2.7-2.7-3.5-3v-0.7 C20.4,18.4,21.1,17.6,21.7,16.6z"/><path fill="currentColor" id="badge" d="M32,16c0-8.8-7.2-16-16-16S0,7.2,0,16c0,5,2.3,9.5,6,12.4V30c0,1.1,0.9,2,2,2h16c1.1,0,2-0.9,2-2v-1.5 C29.6,25.5,32,21,32,16z M24.5,30c0,0.3-0.2,0.5-0.5,0.5H8c-0.3,0-0.5-0.2-0.5-0.5v-4c0-0.3,0.2-0.5,0.5-0.5h16 c0.3,0,0.5,0.2,0.5,0.5V30z M26,26.2V26c0-1.1-0.9-2-2-2H8c-1.1,0-2,0.9-2,2v0.1C3.3,23.6,1.7,20,1.7,16C1.7,8.1,8.1,1.7,16,1.7 c7.9,0,14.3,6.4,14.3,14.3C30.3,20,28.6,23.6,26,26.2z"/></g><g id="stars"><polygon fill="currentColor" points="11.8,26.5 12.3,27.4 13.4,27.6 12.6,28.4 12.8,29.5 11.8,28.9 10.8,29.5 11,28.4 10.2,27.6 11.3,27.4 	"/><polygon fill="currentColor" points="16,26.5 16.4,27.4 17.5,27.6 16.7,28.4 16.9,29.5 16,28.9 15,29.5 15.2,28.4 14.4,27.6 15.5,27.4 	"/><polygon fill="currentColor" points="20.1,26.5 20.6,27.4 21.7,27.6 20.9,28.4 21.1,29.5 20.1,28.9 19.1,29.5 19.3,28.4 18.5,27.6 19.6,27.4 	"/></g>
</svg>