<?xml version="1.0" encoding="UTF-8"?>
<svg xmlns="http://www.w3.org/2000/svg" version="1.1" viewBox="0 0 2500 493.4">
  <!-- Generator: Adobe Illustrator 28.6.0, SVG Export Plug-In . SVG Version: 1.2.0 Build 709)  -->
  <g>
    <g id="Layer_1">
      <path d="M-15.4,144c168.3,96.6,313.8,65,343.3-3.2,16.7-38.5,12.5-85.1-36.3-103.6-70.9-27-136.8,35.8-94.8,164.5,45.5,139.5,319.8,310,610.6,149.9,111.4-61.3,202.2-5,172.6,48.5-41.2,74.5-131.7-56.9,39.2-44.3,162,12,627.5,24,669-118.3,17.9-61.3-75-77-98.4,9.4-32,118.3,123.9,159,204.7,64.7,109.1-127.3,204.4-219.9,448.3-119.4,231.9,95.5,264.9-199.5,264.9-199.5" style="fill: none; stroke: #ffcd05; stroke-miterlimit: 10; stroke-width: 8px;"/>
    </g>
  </g>
</svg>