<?xml version="1.0" encoding="UTF-8"?>
<svg xmlns="http://www.w3.org/2000/svg" version="1.1" viewBox="0 0 1400 495">
  <!-- Generator: Adobe Illustrator 28.6.0, SVG Export Plug-In . SVG Version: 1.2.0 Build 709)  -->
  <g>
    <g id="Layer_1">
      <path d="M-56.3,234.5c110.9,72.1,206.8,48.5,226.3-2.4,11-28.8,8.2-63.5-23.9-77.3-46.7-20.1-90.2,26.7-62.5,122.7,30,104.1,210.8,231.3,402.4,111.9,73.4-45.8,133.3-3.7,113.7,36.2-27.2,55.6-86.8-42.5,25.8-33.1,106.7,8.9,413.6,17.9,440.9-88.3,11.8-45.7-49.5-57.5-64.9,7-21.1,88.3,81.6,118.6,134.9,48.3,71.9-95,134.7-164.1,295.5-89.1,152.8,71.3,174.6-148.8,174.6-148.8" style="fill: none; stroke: #ffcd05; stroke-miterlimit: 10; stroke-width: 6px;"/>
    </g>
  </g>
</svg>